<svg xmlns="http://www.w3.org/2000/svg" version="1.1" xmlns:xlink="http://www.w3.org/1999/xlink" xmlns:svgjs="http://svgjs.dev/svgjs" viewBox="0 0 800 800" opacity="0.11" width="800" height="800"><g stroke-width="0.5" stroke="hsla(353, 98%, 45%, 1.00)" fill="none"><rect width="114.28571428571429" height="100" x="0" y="0"></rect><rect width="114.28571428571429" height="100" x="114.28571428571429" y="0"></rect><rect width="114.28571428571429" height="100" x="228.57142857142858" y="0"></rect><rect width="114.28571428571429" height="100" x="342.8571428571429" y="0"></rect><rect width="114.28571428571429" height="100" x="457.14285714285717" y="0"></rect><rect width="114.28571428571429" height="100" x="571.4285714285714" y="0"></rect><rect width="114.28571428571429" height="100" x="685.7142857142858" y="0"></rect><rect width="114.28571428571429" height="100" x="800.0000000000001" y="0"></rect><rect width="114.28571428571429" height="100" x="0" y="100"></rect><rect width="114.28571428571429" height="100" x="114.28571428571429" y="100"></rect><rect width="114.28571428571429" height="100" x="228.57142857142858" y="100"></rect><rect width="114.28571428571429" height="100" x="342.8571428571429" y="100"></rect><rect width="114.28571428571429" height="100" x="457.14285714285717" y="100"></rect><rect width="114.28571428571429" height="100" x="571.4285714285714" y="100"></rect><rect width="114.28571428571429" height="100" x="685.7142857142858" y="100"></rect><rect width="114.28571428571429" height="100" x="800.0000000000001" y="100"></rect><rect width="114.28571428571429" height="100" x="0" y="200"></rect><rect width="114.28571428571429" height="100" x="114.28571428571429" y="200"></rect><rect width="114.28571428571429" height="100" x="228.57142857142858" y="200"></rect><rect width="114.28571428571429" height="100" x="342.8571428571429" y="200"></rect><rect width="114.28571428571429" height="100" x="457.14285714285717" y="200"></rect><rect width="114.28571428571429" height="100" x="571.4285714285714" y="200"></rect><rect width="114.28571428571429" height="100" x="685.7142857142858" y="200"></rect><rect width="114.28571428571429" height="100" x="800.0000000000001" y="200"></rect><rect width="114.28571428571429" height="100" x="0" y="300"></rect><rect width="114.28571428571429" height="100" x="114.28571428571429" y="300"></rect><rect width="114.28571428571429" height="100" x="228.57142857142858" y="300"></rect><rect width="114.28571428571429" height="100" x="342.8571428571429" y="300"></rect><rect width="114.28571428571429" height="100" x="457.14285714285717" y="300"></rect><rect width="114.28571428571429" height="100" x="571.4285714285714" y="300"></rect><rect width="114.28571428571429" height="100" x="685.7142857142858" y="300"></rect><rect width="114.28571428571429" height="100" x="800.0000000000001" y="300"></rect><rect width="114.28571428571429" height="100" x="0" y="400"></rect><rect width="114.28571428571429" height="100" x="114.28571428571429" y="400"></rect><rect width="114.28571428571429" height="100" x="228.57142857142858" y="400"></rect><rect width="114.28571428571429" height="100" x="342.8571428571429" y="400"></rect><rect width="114.28571428571429" height="100" x="457.14285714285717" y="400"></rect><rect width="114.28571428571429" height="100" x="571.4285714285714" y="400"></rect><rect width="114.28571428571429" height="100" x="685.7142857142858" y="400"></rect><rect width="114.28571428571429" height="100" x="800.0000000000001" y="400"></rect><rect width="114.28571428571429" height="100" x="0" y="500"></rect><rect width="114.28571428571429" height="100" x="114.28571428571429" y="500"></rect><rect width="114.28571428571429" height="100" x="228.57142857142858" y="500"></rect><rect width="114.28571428571429" height="100" x="342.8571428571429" y="500"></rect><rect width="114.28571428571429" height="100" x="457.14285714285717" y="500"></rect><rect width="114.28571428571429" height="100" x="571.4285714285714" y="500"></rect><rect width="114.28571428571429" height="100" x="685.7142857142858" y="500"></rect><rect width="114.28571428571429" height="100" x="800.0000000000001" y="500"></rect><rect width="114.28571428571429" height="100" x="0" y="600"></rect><rect width="114.28571428571429" height="100" x="114.28571428571429" y="600"></rect><rect width="114.28571428571429" height="100" x="228.57142857142858" y="600"></rect><rect width="114.28571428571429" height="100" x="342.8571428571429" y="600"></rect><rect width="114.28571428571429" height="100" x="457.14285714285717" y="600"></rect><rect width="114.28571428571429" height="100" x="571.4285714285714" y="600"></rect><rect width="114.28571428571429" height="100" x="685.7142857142858" y="600"></rect><rect width="114.28571428571429" height="100" x="800.0000000000001" y="600"></rect><rect width="114.28571428571429" height="100" x="0" y="700"></rect><rect width="114.28571428571429" height="100" x="114.28571428571429" y="700"></rect><rect width="114.28571428571429" height="100" x="228.57142857142858" y="700"></rect><rect width="114.28571428571429" height="100" x="342.8571428571429" y="700"></rect><rect width="114.28571428571429" height="100" x="457.14285714285717" y="700"></rect><rect width="114.28571428571429" height="100" x="571.4285714285714" y="700"></rect><rect width="114.28571428571429" height="100" x="685.7142857142858" y="700"></rect><rect width="114.28571428571429" height="100" x="800.0000000000001" y="700"></rect><rect width="114.28571428571429" height="100" x="0" y="800"></rect><rect width="114.28571428571429" height="100" x="114.28571428571429" y="800"></rect><rect width="114.28571428571429" height="100" x="228.57142857142858" y="800"></rect><rect width="114.28571428571429" height="100" x="342.8571428571429" y="800"></rect><rect width="114.28571428571429" height="100" x="457.14285714285717" y="800"></rect><rect width="114.28571428571429" height="100" x="571.4285714285714" y="800"></rect><rect width="114.28571428571429" height="100" x="685.7142857142858" y="800"></rect><rect width="114.28571428571429" height="100" x="800.0000000000001" y="800"></rect></g></svg>